<?xml version="1.0" encoding="UTF-8" standalone="no"?>
<!-- Created with Inkscape (http://www.inkscape.org/) -->

<svg
   width="210mm"
   height="297mm"
   viewBox="0 0 210 297"
   version="1.1"
   id="svg82512"
   sodipodi:docname="logo_r.png.2024_04_23_09_54_36.0.svg"
   inkscape:version="1.1.2 (0a00cf5339, 2022-02-04)"
   xmlns:inkscape="http://www.inkscape.org/namespaces/inkscape"
   xmlns:sodipodi="http://sodipodi.sourceforge.net/DTD/sodipodi-0.dtd"
   xmlns="http://www.w3.org/2000/svg"
   xmlns:svg="http://www.w3.org/2000/svg">
  <sodipodi:namedview
     id="namedview82514"
     pagecolor="#ffffff"
     bordercolor="#111111"
     borderopacity="1"
     inkscape:pageshadow="0"
     inkscape:pageopacity="0"
     inkscape:pagecheckerboard="1"
     inkscape:document-units="mm"
     showgrid="false"
     inkscape:zoom="0.77771465"
     inkscape:cx="469.96672"
     inkscape:cy="561.25984"
     inkscape:window-width="3440"
     inkscape:window-height="1376"
     inkscape:window-x="0"
     inkscape:window-y="27"
     inkscape:window-maximized="1"
     inkscape:current-layer="layer1" />
  <defs
     id="defs82509">
    <rect
       x="-651.17649"
       y="239.47091"
       width="230.28501"
       height="307.42489"
       id="rect85010" />
  </defs>
  <g
     inkscape:label="Layer 1"
     inkscape:groupmode="layer"
     id="layer1">
    <g
       id="g2109"
       inkscape:export-filename="/home/aleix/projects/aleix.penella/ransidble/docs/images/logo_r.png"
       inkscape:export-xdpi="96"
       inkscape:export-ydpi="96">
      <rect
         style="fill:#f2f2f2;fill-opacity:0.997952;stroke:#800000;stroke-width:0;stroke-linecap:round;stroke-miterlimit:4;stroke-dasharray:none"
         id="rect501"
         width="207.45239"
         height="215.23915"
         x="1.4345891"
         y="1.5536636" />
      <g
         id="g102507"
         transform="matrix(0.79131146,0,0,0.79131146,33.877235,41.601766)"
         style="fill:#550000">
        <g
           id="g102951"
           style="fill:#550000">
          <path
             style="fill:#550000;stroke-width:0.264583"
             d="m 87.47199,203.97304 c -15.15445,-0.30437 -26.84469,-0.64079 -27.21586,-0.78322 -1.39526,-0.5354 0.44037,-2.63568 11.22793,-12.84671 4.8643,-4.60432 10.03481,-9.59377 11.49002,-11.08765 2.55401,-2.62189 2.62232,-2.72264 1.96839,-2.90313 -0.93395,-0.25779 -6.62741,-0.48666 -19.69548,-0.79175 -25.26548,-0.58985 -49.16775,-1.59156 -50.53076,-2.11769 -0.43241,-0.1669 0.0191,-0.46754 2.3766,-1.58248 5.21297,-2.46539 21.41665,-9.71928 34.39583,-15.39796 12.4543,-5.44904 17.33021,-7.73966 17.33021,-8.14146 0,-0.44222 -7.08464,-1.0462 -42.06875,-3.58647 -38.32616,-2.78294 -50.52477,-3.73252 -50.7422,-3.94995 -0.25793,-0.25793 0.0569,-0.38364 2.60264,-1.0392 7.83798,-2.01837 25.0566,-5.52398 59.25206,-12.06336 27.15727,-5.19343 34.96208,-6.83419 35.32839,-7.42689 0.3526,-0.57051 -10.63919,-7.10076 -30.03672,-17.84492 C 9.05593,83.52337 8.22929,83.03705 8.22929,81.86357 c 0,-1.94886 9.38429,-0.018 41.1427,8.46512 23.20769,6.19912 28.95971,7.63419 33.02583,8.23959 2.47507,0.3685 2.98084,0.25755 2.54428,-0.55818 C 84.0995,96.43571 73.80656,84.19997 60.3522,68.77887 41.12833,46.74486 41.1655,46.79105 41.35247,45.17258 c 0.27736,-2.40096 5.7621,0.70465 34.74244,19.67209 5.82083,3.8097 13.08365,8.53059 16.13958,10.49088 9.46524,6.07163 10.45104,6.60507 10.45104,5.65526 0,-1.45321 -3.72355,-9.81003 -16.80638,-37.71889 -9.77233,-20.84673 -11.99514,-26.04649 -12.2292,-28.60745 -0.11627,-1.27219 -0.0544,-1.56918 0.42689,-2.05052 1.27119,-1.27119 1.84321,-0.82502 7.37889,5.75535 4.18647,4.97653 16.6671,19.37724 27.54354,31.78095 5.70794,6.50946 11.62014,12.85429 11.79831,12.66167 0.17197,-0.18592 -1.2131,-9.03163 -6.18743,-39.51604 -5.06705,-31.05264 -5.54385,-34.23686 -5.75636,-38.44242 l -0.16436,-3.25283 0.22138,-4.91301 c 0.0514,-1.13999 2.86446,2.02597 2.99297,2.02597 0.23842,0 1.95229,3.66811 13.3512,28.575 11.89032,25.98064 21.2152,45.6742 22.80095,48.15417 l 0.76131,1.19062 0.45863,-1.05833 c 0.91601,-2.11376 2.81506,-11.78191 4.57339,-23.28333 1.22416,-8.00737 1.84717,-13.09606 2.81818,-23.01875 1.39429,-14.24815 2.13752,-20.72484 4.63026,-40.34896 1.49115,-10.53662 6.87649,20.18284 9.23688,30.55937 4.43363,19.49979 10.50759,46.15511 13.49771,59.23405 2.99012,13.07893 5.43657,23.89356 5.43657,24.03251 0,0.13895 -0.38695,0.0159 -0.85989,-0.27343 -2.04916,-1.25362 -10.09647,-4.30559 -12.33344,-4.67749 -0.38351,-0.0638 -1.70932,-0.35577 -2.94625,-0.6489 -8.99585,-2.13189 -19.94738,-1.98493 -29.38943,0.39438 -8.27608,2.08549 -16.97906,6.42161 -23.65658,11.78649 -12.09787,9.71974 -20.21864,24.38914 -22.39792,40.45968 -0.48774,3.59665 -0.41742,12.9124 0.12442,16.48491 1.85862,12.25441 6.60864,23.22965 14.10705,32.59529 8.20129,10.24356 20.51233,18.57419 32.70361,22.12984 1.12779,0.32893 2.05052,0.67878 2.05052,0.77746 0,0.39933 -8.74073,1.35682 -16.80104,1.84044 -4.64431,0.27866 -34.14789,0.52414 -42.59792,0.35443 z"
             id="path66770"
             sodipodi:nodetypes="ssssssssssssssssssssssssssscssssscsssscsssccssssssssssssss" />
          <text
             xml:space="preserve"
             transform="matrix(0.43393963,0,0,0.43393963,410.24154,-37.534894)"
             id="text85008"
             style="font-style:normal;font-weight:normal;font-size:266.667px;line-height:1.25;font-family:sans-serif;white-space:pre;shape-inside:url(#rect85010);fill:#550000;fill-opacity:1;stroke:none"><tspan
               x="-651.17578"
               y="479.67218"
               id="tspan2227"><tspan
                 style="font-family:'Punk Kid';-inkscape-font-specification:'Punk Kid'"
                 id="tspan2225">R</tspan></tspan></text>
        </g>
      </g>
    </g>
  </g>
</svg>
